<?xml version="1.0" encoding="UTF-8"?>
<svg id="Layer_1" xmlns="http://www.w3.org/2000/svg" version="1.1" viewBox="0 0 104.81 68.84">
  <!-- Generator: Adobe Illustrator 30.3.0, SVG Export Plug-In . SVG Version: 2.1.3 Build 182)  -->
  <path d="M99.53.73l-30.44,14.6c-1.53.7-2.64.42-3.75-.83C58.52,6.29,48.24,1.15,36.84,1.15,16.54,1.15,0,17.55,0,37.84v25.44c0,3.61,1.95,5.56,5.56,5.56h95.92c1.81,0,2.78-.97,2.78-2.78v-5.28c0-1.81-.97-2.78-2.78-2.78h-22.24c-2.08,0-3.06-1.39-1.95-3.34L103.98,5.46c2.22-4.17-.28-6.81-4.45-4.73ZM52.4,36.19c0,8.99-7.29,16.28-16.28,16.28s-16.28-7.29-16.28-16.28,7.29-16.28,16.28-16.28,16.28,7.29,16.28,16.28Z"/>
</svg>