<?xml version="1.0" encoding="UTF-8"?>
<svg id="Layer_1" xmlns="http://www.w3.org/2000/svg" version="1.1" viewBox="0 0 261.72 105.36">
  <!-- Generator: Adobe Illustrator 30.3.0, SVG Export Plug-In . SVG Version: 2.1.3 Build 182)  -->
  <path d="M50.13,3.34l41.98,94.94c1.67,3.89,0,6.53-4.17,6.53H4.81c-4.17,0-5.84-2.64-4.17-6.53L42.62,3.34c1.95-4.45,5.56-4.45,7.51,0Z"/>
  <path d="M106,.56h75.48c2.36,0,3.06,1.67,1.39,3.48l-44.76,46.01c-1.25,1.25-1.39,2.5-.14,3.89l45.04,47.4c1.67,1.81.83,3.48-1.53,3.48h-75.48c-3.61,0-5.56-1.95-5.56-5.56V6.12c0-3.61,1.95-5.56,5.56-5.56Z"/>
  <path d="M260.99,100.09l-14.6-30.44c-.7-1.53-.42-2.64.83-3.75,8.2-6.81,13.34-17.1,13.34-28.5,0-20.29-16.4-36.84-36.7-36.84h-25.44c-3.61,0-5.56,1.95-5.56,5.56v95.92c0,1.81.97,2.78,2.78,2.78h5.28c1.81,0,2.78-.97,2.78-2.78v-22.24c0-2.08,1.39-3.06,3.34-1.95l49.21,26.69c4.17,2.22,6.81-.28,4.73-4.45ZM225.52,52.96c-8.99,0-16.28-7.29-16.28-16.28s7.29-16.28,16.28-16.28,16.28,7.29,16.28,16.28-7.29,16.28-16.28,16.28Z"/>
</svg>